<?xml version="1.0" standalone="no"?>
<!DOCTYPE svg PUBLIC "-//W3C//DTD SVG 20010904//EN"
 "http://www.w3.org/TR/2001/REC-SVG-20010904/DTD/svg10.dtd">
<svg version="1.0" xmlns="http://www.w3.org/2000/svg"
 width="240.000000pt" height="240.000000pt" viewBox="0 0 240.000000 240.000000"
 preserveAspectRatio="xMidYMid meet">
<metadata>
Created by potrace 1.11, written by Peter Selinger 2001-2013
</metadata>
<g transform="translate(0.000000,240.000000) scale(0.100000,-0.100000)"
fill="#000000" stroke="none">
<path d="M100 1200 l0 -1200 640 0 640 0 -41 52 c-87 111 -129 226 -135 373
-4 113 11 193 54 290 30 68 103 169 157 217 83 74 220 142 315 156 88 13 242
5 308 -16 l64 -21 -4 167 c-3 134 -7 173 -21 199 -57 107 -169 172 -346 203
-91 16 -282 14 -376 -4 -44 -9 -81 -16 -82 -16 -1 0 2 12 6 28 21 76 19 348
-3 451 -16 76 -61 181 -93 216 -37 42 -93 77 -145 91 -42 11 -146 14 -495 14
l-443 0 0 -1200z"/>
<path d="M1370 2384 c0 -3 9 -19 20 -34 56 -79 101 -263 103 -421 l2 -105 35
6 c56 10 208 3 286 -14 80 -17 192 -57 242 -86 29 -18 32 -18 23 -2 -34 61
-396 425 -518 521 -100 78 -193 143 -193 135z"/>
<path d="M1738 885 c-297 -81 -431 -422 -267 -677 90 -139 253 -219 419 -204
314 27 501 360 363 645 -36 74 -132 170 -205 204 -99 47 -214 59 -310 32z
m162 -285 l0 -100 100 0 100 0 0 -50 0 -50 -100 0 -100 0 0 -100 0 -100 -50 0
-50 0 0 100 0 100 -100 0 -100 0 0 50 0 50 100 0 100 0 0 100 0 100 50 0 50 0
0 -100z"/>
</g>
</svg>
